<svg width="79" height="79" viewBox="0 0 79 79" fill="none" xmlns="http://www.w3.org/2000/svg">
<path d="M75.0825 23.6566C76.6535 25.8936 74.7809 28.6244 72.0475 28.6244H3.9482C1.76769 28.6244 0 26.8568 0 24.6762V17.451C0 7.81743 7.81743 0 17.451 0H26.6109C33.0464 0 35.06 2.09255 37.6263 5.52748L43.1538 12.8711C44.3778 14.4899 44.5357 14.6873 46.8256 14.6873H57.8411C64.966 14.6873 71.2713 18.2292 75.0825 23.6566Z" fill="#292D32"/>
<path d="M74.9502 34.5468C77.1253 34.5468 78.8909 36.3065 78.8984 38.4815L78.964 57.8423C78.964 69.4895 69.4883 78.9652 57.8411 78.9652H21.1229C9.47568 78.9652 0 69.4895 0 57.8423V38.4961C0 36.3155 1.76765 34.5479 3.94816 34.5479L74.9502 34.5468Z" fill="#292D32"/>
</svg>
