<svg width="15" height="16" viewBox="0 0 15 16" fill="none" xmlns="http://www.w3.org/2000/svg">
<path d="M13.524 3.85464L9.20828 0.630265C8.03196 -0.249837 6.22626 -0.201831 5.09491 0.734277L1.34116 3.86264C0.591909 4.48671 0 5.76686 0 6.77493V12.2956C0 14.3358 0.0894078 16 2 16H7.54688H13C14.9106 16 15 14.3438 15 12.3036V6.87895C15 5.79886 14.3481 4.47071 13.524 3.85464ZM9 15C9 15 7.80719 15 7.5 15C7.19281 15 6 15 6 15V11C6 10.672 7.19281 10.5 7.5 10.5C7.80719 10.5 9 10.672 9 11V15Z" fill="white"/>
</svg>
