<svg width="14" height="16" viewBox="0 0 14 16" fill="none" xmlns="http://www.w3.org/2000/svg">
<path d="M6.99985 7.80488C9.12634 7.80488 10.8502 6.05769 10.8502 3.90244C10.8502 1.74718 9.12634 0 6.99985 0C4.87335 0 3.14948 1.74718 3.14948 3.90244C3.14948 6.05769 4.87335 7.80488 6.99985 7.80488Z" fill="white"/>
<path d="M7.00002 9.7561C3.14191 9.7561 0 12.3785 0 15.6098C0 15.8283 0.169417 16 0.385038 16H13.615C13.8306 16 14 15.8283 14 15.6098C14 12.3785 10.8581 9.7561 7.00002 9.7561Z" fill="white"/>
<path d="M6.99985 7.80488C9.12634 7.80488 10.8502 6.05769 10.8502 3.90244C10.8502 1.74718 9.12634 0 6.99985 0C4.87335 0 3.14948 1.74718 3.14948 3.90244C3.14948 6.05769 4.87335 7.80488 6.99985 7.80488Z" fill="white"/>
<path d="M7.00002 9.7561C3.14191 9.7561 0 12.3785 0 15.6098C0 15.8283 0.169417 16 0.385038 16H13.615C13.8306 16 14 15.8283 14 15.6098C14 12.3785 10.8581 9.7561 7.00002 9.7561Z" fill="white"/>
<path d="M6.99985 7.80488C9.12634 7.80488 10.8502 6.05769 10.8502 3.90244C10.8502 1.74718 9.12634 0 6.99985 0C4.87335 0 3.14948 1.74718 3.14948 3.90244C3.14948 6.05769 4.87335 7.80488 6.99985 7.80488Z" fill="white"/>
<path d="M7.00002 9.7561C3.14191 9.7561 0 12.3785 0 15.6098C0 15.8283 0.169417 16 0.385038 16H13.615C13.8306 16 14 15.8283 14 15.6098C14 12.3785 10.8581 9.7561 7.00002 9.7561Z" fill="white"/>
<path d="M6.99985 7.80488C9.12634 7.80488 10.8502 6.05769 10.8502 3.90244C10.8502 1.74718 9.12634 0 6.99985 0C4.87335 0 3.14948 1.74718 3.14948 3.90244C3.14948 6.05769 4.87335 7.80488 6.99985 7.80488Z" fill="white"/>
<path d="M7.00002 9.7561C3.14191 9.7561 0 12.3785 0 15.6098C0 15.8283 0.169417 16 0.385038 16H13.615C13.8306 16 14 15.8283 14 15.6098C14 12.3785 10.8581 9.7561 7.00002 9.7561Z" fill="white"/>
</svg>
