<svg width="79" height="72" viewBox="0 0 79 72" fill="none" xmlns="http://www.w3.org/2000/svg">
<path d="M63.1712 0H15.7928C7.06728 0 0 7.02779 0 15.6743V55.3932C0 64.0398 7.06728 71.0676 15.7928 71.0676H63.1712C71.8967 71.0676 78.964 64.0398 78.964 55.3932V15.6743C78.964 7.02779 71.8967 0 63.1712 0ZM25.6633 16.464C30.6775 16.464 34.7836 20.5701 34.7836 25.5843C34.7836 30.5985 30.6775 34.7047 25.6633 34.7047C20.6491 34.7047 16.543 30.5985 16.543 25.5843C16.543 20.5701 20.6491 16.464 25.6633 16.464ZM40.9428 53.9324C40.5875 54.3272 40.0347 54.5641 39.482 54.5641H11.8446C11.2918 54.5641 10.7391 54.3272 10.3838 53.9324C10.0284 53.5376 9.83101 52.9848 9.8705 52.4321C10.5417 45.7991 15.8323 40.548 22.4653 39.9163C24.5578 39.7189 26.7293 39.7189 28.8219 39.9163C35.4548 40.548 40.7849 45.7991 41.4166 52.4321C41.4956 52.9848 41.2982 53.5376 40.9428 53.9324ZM67.1194 54.2877H59.223C57.6042 54.2877 56.2618 52.9454 56.2618 51.3266C56.2618 49.7078 57.6042 48.3654 59.223 48.3654H67.1194C68.7381 48.3654 70.0805 49.7078 70.0805 51.3266C70.0805 52.9454 68.7381 54.2877 67.1194 54.2877ZM67.1194 38.4949H51.3266C49.7078 38.4949 48.3654 37.1526 48.3654 35.5338C48.3654 33.915 49.7078 32.5726 51.3266 32.5726H67.1194C68.7381 32.5726 70.0805 33.915 70.0805 35.5338C70.0805 37.1526 68.7381 38.4949 67.1194 38.4949ZM67.1194 22.7021H47.3784C45.7596 22.7021 44.4172 21.3598 44.4172 19.741C44.4172 18.1222 45.7596 16.7798 47.3784 16.7798H67.1194C68.7381 16.7798 70.0805 18.1222 70.0805 19.741C70.0805 21.3598 68.7381 22.7021 67.1194 22.7021Z" fill="#292D32"/>
</svg>
