<svg width="80" height="72" viewBox="0 0 80 72" fill="none" xmlns="http://www.w3.org/2000/svg">
<path d="M63.6892 0H16.3109C7.58534 0 0.518066 7.02779 0.518066 15.6743V55.3932C0.518066 64.0398 7.58534 71.0676 16.3109 71.0676H63.6892C72.4148 71.0676 79.482 64.0398 79.482 55.3932V15.6743C79.482 7.02779 72.4148 0 63.6892 0ZM26.1814 16.464C31.1956 16.464 35.3017 20.5701 35.3017 25.5843C35.3017 30.5985 31.1956 34.7047 26.1814 34.7047C21.1671 34.7047 17.061 30.5985 17.061 25.5843C17.061 20.5701 21.1671 16.464 26.1814 16.464ZM41.4609 53.9324C41.1055 54.3272 40.5528 54.5641 40.0001 54.5641H12.3627C11.8099 54.5641 11.2572 54.3272 10.9018 53.9324C10.5465 53.5376 10.3491 52.9848 10.3886 52.4321C11.0598 45.7991 16.3503 40.548 22.9833 39.9163C25.0759 39.7189 27.2474 39.7189 29.3399 39.9163C35.9729 40.548 41.303 45.7991 41.9347 52.4321C42.0136 52.9848 41.8162 53.5376 41.4609 53.9324ZM67.6374 54.2877H59.741C58.1223 54.2877 56.7799 52.9454 56.7799 51.3266C56.7799 49.7078 58.1223 48.3654 59.741 48.3654H67.6374C69.2562 48.3654 70.5986 49.7078 70.5986 51.3266C70.5986 52.9454 69.2562 54.2877 67.6374 54.2877ZM67.6374 38.4949H51.8447C50.2259 38.4949 48.8835 37.1526 48.8835 35.5338C48.8835 33.915 50.2259 32.5726 51.8447 32.5726H67.6374C69.2562 32.5726 70.5986 33.915 70.5986 35.5338C70.5986 37.1526 69.2562 38.4949 67.6374 38.4949ZM67.6374 22.7021H47.8965C46.2777 22.7021 44.9353 21.3598 44.9353 19.741C44.9353 18.1222 46.2777 16.7798 47.8965 16.7798H67.6374C69.2562 16.7798 70.5986 18.1222 70.5986 19.741C70.5986 21.3598 69.2562 22.7021 67.6374 22.7021Z" fill="#292D32"/>
</svg>
