<svg width="111" height="112" viewBox="0 0 111 112" fill="none" xmlns="http://www.w3.org/2000/svg">
<path d="M89.1001 22.4C85.6841 22.4 82.5481 20.44 80.9801 17.416L76.9481 9.296C74.3721 4.2 67.6521 0 61.9401 0H49.1161C43.3479 0 36.6279 4.2 34.0519 9.296L30.0199 17.416C28.4519 20.44 25.3159 22.4 21.8999 22.4C9.74791 22.4 0.115913 32.648 0.899913 44.744L3.81191 91C4.48391 102.536 10.6999 112 26.1559 112H84.8441C100.3 112 106.46 102.536 107.188 91L110.1 44.744C110.884 32.648 101.252 22.4 89.1001 22.4ZM47.1001 29.4H63.9001C66.1961 29.4 68.1001 31.304 68.1001 33.6C68.1001 35.896 66.1961 37.8 63.9001 37.8H47.1001C44.8041 37.8 42.8999 35.896 42.8999 33.6C42.8999 31.304 44.8041 29.4 47.1001 29.4ZM55.5001 90.272C45.0841 90.272 36.5719 81.816 36.5719 71.344C36.5719 60.872 45.0281 52.416 55.5001 52.416C65.9721 52.416 74.4281 60.872 74.4281 71.344C74.4281 81.816 65.9161 90.272 55.5001 90.272Z" fill="#9A9A9A"/>
</svg>
