<svg width="26" height="27" viewBox="0 0 26 27" fill="none" xmlns="http://www.w3.org/2000/svg">
<path d="M2.01728 24.4876V7.46417H0.322266V24.9132C0.322644 25.2517 0.456702 25.5762 0.695028 25.8155C0.933355 26.0549 1.25649 26.1895 1.59353 26.1899H18.9675V24.4876H2.01728Z" fill="black"/>
<path d="M5.40699 21.0829V4.05948H3.71197V21.5085C3.71235 21.847 3.84641 22.1715 4.08474 22.4109C4.32306 22.6502 4.64619 22.7848 4.98324 22.7852H22.3572V21.0829H5.40699Z" fill="black"/>
<path d="M24.4766 0.654785H8.37394C8.03689 0.655165 7.71376 0.789802 7.47544 1.02916C7.23711 1.26851 7.10305 1.59304 7.10267 1.93154V18.1038C7.10305 18.4423 7.23711 18.7668 7.47544 19.0062C7.71376 19.2455 8.03689 19.3802 8.37394 19.3805H24.4766C24.8137 19.3802 25.1368 19.2455 25.3751 19.0062C25.6134 18.7668 25.7475 18.4423 25.7479 18.1038V1.93154C25.7475 1.59304 25.6134 1.26851 25.3751 1.02916C25.1368 0.789802 24.8137 0.655165 24.4766 0.654785ZM24.0529 17.6782H8.79769V2.35713H24.0529V17.6782Z" fill="black"/>
<path d="M15.5774 15.1247H17.2725V10.656H21.7219V8.9537H17.2725V4.48505H15.5774V8.9537H11.128V10.656H15.5774V15.1247Z" fill="black"/>
</svg>
