<svg width="25" height="26" viewBox="0 0 25 26" fill="none" xmlns="http://www.w3.org/2000/svg">
<path d="M1.66667 23.8334V7.16669H0V24.25C0.000372204 24.5814 0.132188 24.8992 0.366528 25.1335C0.600867 25.3678 0.918594 25.4996 1.25 25.5H18.3333V23.8334H1.66667Z" fill="white"/>
<path d="M6.66634 20.5H4.99967V3.83334H3.33301V20.9167C3.33338 21.2481 3.4652 21.5658 3.69954 21.8001C3.93388 22.0345 4.2516 22.1663 4.58301 22.1667H21.6663V20.5H6.66634Z" fill="white"/>
<path d="M23.7503 0.5H7.91699C7.58559 0.500372 7.26786 0.632188 7.03352 0.866528C6.79918 1.10087 6.66736 1.41859 6.66699 1.75V17.5833C6.66736 17.9147 6.79918 18.2325 7.03352 18.4668C7.26786 18.7011 7.58559 18.833 7.91699 18.8333H23.7503C24.0817 18.833 24.3995 18.7011 24.6338 18.4668C24.8681 18.2325 25 17.9147 25.0003 17.5833V1.75C25 1.41859 24.8681 1.10087 24.6338 0.866528C24.3995 0.632188 24.0817 0.500372 23.7503 0.5ZM23.3337 17.1667H8.33366V2.16667H23.3337V17.1667Z" fill="white"/>
<path d="M15 14.6667H16.6667V10.2917H21.0417V8.625H16.6667V4.25H15V8.625H10.625V10.2917H15V14.6667Z" fill="white"/>
</svg>
