<svg width="79" height="79" viewBox="0 0 79 79" fill="none" xmlns="http://www.w3.org/2000/svg">
<path d="M58.4625 27.6357H42.4643V52.3243C42.4643 53.9438 41.1212 55.2869 39.5017 55.2869C37.8821 55.2869 36.539 53.9438 36.539 52.3243V27.6357H20.5409C7.90033 27.6357 0 35.5361 0 48.1766V58.4075C0 71.0876 7.90033 78.9879 20.5409 78.9879H58.423C71.0635 78.9879 78.9638 71.0876 78.9638 58.447V48.1766C79.0033 35.5361 71.103 27.6357 58.4625 27.6357Z" fill="#292D32"/>
<path d="M42.4635 10.1026L50.6403 18.2794C51.2328 18.8719 51.9834 19.1484 52.7339 19.1484C53.4844 19.1484 54.235 18.8719 54.8275 18.2794C55.973 17.1338 55.973 15.2378 54.8275 14.0922L41.5944 0.859161C40.4489 -0.286387 38.5528 -0.286387 37.4072 0.859161L24.1743 14.0922C23.0288 15.2378 23.0288 17.1338 24.1743 18.2794C25.3199 19.4249 27.216 19.4249 28.3615 18.2794L36.5382 10.1026V27.6413H42.4635V10.1026Z" fill="#292D32"/>
</svg>
