<svg width="80" height="79" viewBox="0 0 80 79" fill="none" xmlns="http://www.w3.org/2000/svg">
<path d="M58.9805 27.6357H42.9824V52.3243C42.9824 53.9438 41.6393 55.2869 40.0197 55.2869C38.4002 55.2869 37.0571 53.9438 37.0571 52.3243V27.6357H21.0589C8.4184 27.6357 0.518066 35.5361 0.518066 48.1766V58.4075C0.518066 71.0876 8.4184 78.9879 21.0589 78.9879H58.941C71.5816 78.9879 79.4819 71.0876 79.4819 58.447V48.1766C79.5214 35.5361 71.6211 27.6357 58.9805 27.6357Z" fill="#292D32"/>
<path d="M42.9815 10.1026L51.1584 18.2794C51.7509 18.8719 52.5014 19.1484 53.252 19.1484C54.0025 19.1484 54.753 18.8719 55.3456 18.2794C56.4911 17.1338 56.4911 15.2378 55.3456 14.0922L42.1125 0.859161C40.9669 -0.286387 39.0709 -0.286387 37.9253 0.859161L24.6924 14.0922C23.5469 15.2378 23.5469 17.1338 24.6924 18.2794C25.838 19.4249 27.734 19.4249 28.8796 18.2794L37.0563 10.1026V27.6413H42.9815V10.1026Z" fill="#292D32"/>
</svg>
