<svg width="61" height="61" viewBox="0 0 61 61" fill="none" xmlns="http://www.w3.org/2000/svg">
<path d="M58.0015 18.2748C59.2151 20.0029 57.7685 22.1125 55.657 22.1125H3.05C1.36555 22.1125 0 20.747 0 19.0625V13.481C0 6.039 6.039 0 13.481 0H20.557C25.5285 0 27.084 1.6165 29.0665 4.27L33.3365 9.943C34.282 11.1935 34.404 11.346 36.173 11.346H44.6825C50.1865 11.346 55.0574 14.0821 58.0015 18.2748Z" fill="#292D32"/>
<path d="M57.8994 26.6875C59.5796 26.6875 60.9436 28.0469 60.9494 29.7271L61 44.6834C61 53.6809 53.68 61.0009 44.6825 61.0009H16.3175C7.32 61.0009 0 53.6809 0 44.6834V29.7384C0 28.0539 1.36552 26.6884 3.04997 26.6884L57.8994 26.6875Z" fill="#292D32"/>
</svg>
