<svg width="80" height="79" viewBox="0 0 80 79" fill="none" xmlns="http://www.w3.org/2000/svg">
<path d="M75.6006 23.6566C77.1716 25.8936 75.2989 28.6244 72.5656 28.6244H4.46627C2.28575 28.6244 0.518066 26.8568 0.518066 24.6762V17.451C0.518066 7.81743 8.3355 0 17.9691 0H27.1289C33.5645 0 35.5781 2.09255 38.1444 5.52748L43.6719 12.8711C44.8958 14.4899 45.0538 14.6873 47.3437 14.6873H58.3592C65.4841 14.6873 71.7894 18.2292 75.6006 23.6566Z" fill="#292D32"/>
<path d="M75.4683 34.5468C77.6434 34.5468 79.409 36.3065 79.4165 38.4815L79.482 57.8423C79.482 69.4895 70.0064 78.9652 58.3592 78.9652H21.6409C9.99374 78.9652 0.518066 69.4895 0.518066 57.8423V38.4961C0.518066 36.3155 2.28571 34.5479 4.46623 34.5479L75.4683 34.5468Z" fill="#292D32"/>
</svg>
