<svg width="68" height="61" viewBox="0 0 68 61" fill="none" xmlns="http://www.w3.org/2000/svg">
<path d="M54.2222 0H13.5556C6.06611 0 0 6.03222 0 13.4539V47.5461C0 54.9678 6.06611 61 13.5556 61H54.2222C61.7117 61 67.7778 54.9678 67.7778 47.5461V13.4539C67.7778 6.03222 61.7117 0 54.2222 0ZM22.0278 14.1317C26.3317 14.1317 29.8561 17.6561 29.8561 21.96C29.8561 26.2639 26.3317 29.7883 22.0278 29.7883C17.7239 29.7883 14.1994 26.2639 14.1994 21.96C14.1994 17.6561 17.7239 14.1317 22.0278 14.1317ZM35.1428 46.2922C34.8378 46.6311 34.3633 46.8344 33.8889 46.8344H10.1667C9.69222 46.8344 9.21778 46.6311 8.91278 46.2922C8.60778 45.9533 8.43833 45.4789 8.47222 45.0044C9.04833 39.3111 13.5894 34.8039 19.2828 34.2617C21.0789 34.0922 22.9428 34.0922 24.7389 34.2617C30.4322 34.8039 35.0072 39.3111 35.5494 45.0044C35.6172 45.4789 35.4478 45.9533 35.1428 46.2922ZM57.6111 46.5972H50.8333C49.4439 46.5972 48.2917 45.445 48.2917 44.0556C48.2917 42.6661 49.4439 41.5139 50.8333 41.5139H57.6111C59.0005 41.5139 60.1528 42.6661 60.1528 44.0556C60.1528 45.445 59.0005 46.5972 57.6111 46.5972ZM57.6111 33.0417H44.0556C42.6661 33.0417 41.5139 31.8894 41.5139 30.5C41.5139 29.1106 42.6661 27.9583 44.0556 27.9583H57.6111C59.0005 27.9583 60.1528 29.1106 60.1528 30.5C60.1528 31.8894 59.0005 33.0417 57.6111 33.0417ZM57.6111 19.4861H40.6667C39.2772 19.4861 38.125 18.3339 38.125 16.9444C38.125 15.555 39.2772 14.4028 40.6667 14.4028H57.6111C59.0005 14.4028 60.1528 15.555 60.1528 16.9444C60.1528 18.3339 59.0005 19.4861 57.6111 19.4861Z" fill="#292D32"/>
</svg>
