<svg width="86" height="86" viewBox="0 0 86 86" fill="none" xmlns="http://www.w3.org/2000/svg">
<path d="M43 0C19.307 0 0 19.307 0 43C0 66.693 19.307 86 43 86C66.693 86 86 66.693 86 43C86 19.307 66.693 0 43 0ZM60.2 46.225H46.225V60.2C46.225 61.963 44.763 63.425 43 63.425C41.237 63.425 39.775 61.963 39.775 60.2V46.225H25.8C24.037 46.225 22.575 44.763 22.575 43C22.575 41.237 24.037 39.775 25.8 39.775H39.775V25.8C39.775 24.037 41.237 22.575 43 22.575C44.763 22.575 46.225 24.037 46.225 25.8V39.775H60.2C61.963 39.775 63.425 41.237 63.425 43C63.425 44.763 61.963 46.225 60.2 46.225Z" fill="black"/>
</svg>
