<svg width="80" height="79" viewBox="0 0 80 79" fill="none" xmlns="http://www.w3.org/2000/svg">
<path d="M40 0C18.2355 0 0.5 17.7355 0.5 39.5C0.5 61.2645 18.2355 79 40 79C61.7645 79 79.5 61.2645 79.5 39.5C79.5 17.7355 61.7645 0 40 0ZM55.8 42.4625H42.9625V55.3C42.9625 56.9195 41.6195 58.2625 40 58.2625C38.3805 58.2625 37.0375 56.9195 37.0375 55.3V42.4625H24.2C22.5805 42.4625 21.2375 41.1195 21.2375 39.5C21.2375 37.8805 22.5805 36.5375 24.2 36.5375H37.0375V23.7C37.0375 22.0805 38.3805 20.7375 40 20.7375C41.6195 20.7375 42.9625 22.0805 42.9625 23.7V36.5375H55.8C57.4195 36.5375 58.7625 37.8805 58.7625 39.5C58.7625 41.1195 57.4195 42.4625 55.8 42.4625Z" fill="#292D32"/>
</svg>
