<svg width="18" height="16" viewBox="0 0 18 16" fill="none" xmlns="http://www.w3.org/2000/svg">
<path d="M14 0H9.76366C7.20189 0 5.60078 1.6 5.60078 4.16V7.4H10.6042C10.9325 7.4 11.2047 7.672 11.2047 8C11.2047 8.328 10.9325 8.6 10.6042 8.6H5.60078V11.84C5.60078 14.4 7.20189 16 9.76366 16H14C16.5618 16 18 14.56 18 12V4.16C18.008 1.6 16.5618 0 14 0Z" fill="white"/>
<path d="M2.04742 7.39984L3.70456 5.74387C3.82465 5.62387 3.88068 5.47187 3.88068 5.31987C3.88068 5.16787 3.82465 5.00787 3.70456 4.89587C3.4724 4.66387 3.08814 4.66387 2.85598 4.89587L0.17412 7.57584C-0.0580401 7.80784 -0.0580401 8.19184 0.17412 8.42384L2.85598 11.1038C3.08814 11.3358 3.4724 11.3358 3.70456 11.1038C3.93672 10.8718 3.93672 10.4878 3.70456 10.2558L2.04742 8.59984H5.60187V7.39984H2.04742Z" fill="white"/>
<path d="M14 0H9.76366C7.20189 0 5.60078 1.6 5.60078 4.16V7.4H10.6042C10.9325 7.4 11.2047 7.672 11.2047 8C11.2047 8.328 10.9325 8.6 10.6042 8.6H5.60078V11.84C5.60078 14.4 7.20189 16 9.76366 16H14C16.5618 16 18 14.56 18 12V4.16C18.008 1.6 16.5618 0 14 0Z" fill="white"/>
<path d="M2.04742 7.39984L3.70456 5.74387C3.82465 5.62387 3.88068 5.47187 3.88068 5.31987C3.88068 5.16787 3.82465 5.00787 3.70456 4.89587C3.4724 4.66387 3.08814 4.66387 2.85598 4.89587L0.17412 7.57584C-0.0580401 7.80784 -0.0580401 8.19184 0.17412 8.42384L2.85598 11.1038C3.08814 11.3358 3.4724 11.3358 3.70456 11.1038C3.93672 10.8718 3.93672 10.4878 3.70456 10.2558L2.04742 8.59984H5.60187V7.39984H2.04742Z" fill="white"/>
</svg>
