<svg width="79" height="79" viewBox="0 0 79 79" fill="none" xmlns="http://www.w3.org/2000/svg">
<path d="M39.5 0C17.7355 0 0 17.7355 0 39.5C0 61.2645 17.7355 79 39.5 79C61.2645 79 79 61.2645 79 39.5C79 17.7355 61.2645 0 39.5 0ZM55.3 42.4625H42.4625V55.3C42.4625 56.9195 41.1195 58.2625 39.5 58.2625C37.8805 58.2625 36.5375 56.9195 36.5375 55.3V42.4625H23.7C22.0805 42.4625 20.7375 41.1195 20.7375 39.5C20.7375 37.8805 22.0805 36.5375 23.7 36.5375H36.5375V23.7C36.5375 22.0805 37.8805 20.7375 39.5 20.7375C41.1195 20.7375 42.4625 22.0805 42.4625 23.7V36.5375H55.3C56.9195 36.5375 58.2625 37.8805 58.2625 39.5C58.2625 41.1195 56.9195 42.4625 55.3 42.4625Z" fill="#292D32"/>
</svg>
