<svg width="110" height="112" viewBox="0 0 110 112" fill="none" xmlns="http://www.w3.org/2000/svg">
<path d="M88.2449 22.4C84.8288 22.4 81.6928 20.44 80.1248 17.416L76.0928 9.296C73.5169 4.2 66.7968 0 61.0848 0H48.2608C42.4927 0 35.7727 4.2 33.1967 9.296L29.1647 17.416C27.5967 20.44 24.4607 22.4 21.0447 22.4C8.89269 22.4 -0.739312 32.648 0.0446882 44.744L2.95669 91C3.62869 102.536 9.84469 112 25.3007 112H83.9888C99.4448 112 105.605 102.536 106.333 91L109.245 44.744C110.029 32.648 100.397 22.4 88.2449 22.4ZM46.2449 29.4H63.0448C65.3409 29.4 67.2449 31.304 67.2449 33.6C67.2449 35.896 65.3409 37.8 63.0448 37.8H46.2449C43.9488 37.8 42.0447 35.896 42.0447 33.6C42.0447 31.304 43.9488 29.4 46.2449 29.4ZM54.6449 90.272C44.2289 90.272 35.7167 81.816 35.7167 71.344C35.7167 60.872 44.1729 52.416 54.6449 52.416C65.1169 52.416 73.5728 60.872 73.5728 71.344C73.5728 81.816 65.0609 90.272 54.6449 90.272Z" fill="#9A9A9A"/>
</svg>
